<svg width="25" height="25" viewBox="0 0 25 25" fill="none" xmlns="http://www.w3.org/2000/svg">
<path d="M19.696 21.8816C19.2496 22.1696 18.8334 22.48 18.3794 22.7185C18.1908 22.8176 17.914 22.8084 17.6903 22.7709C16.6088 22.5896 15.56 22.287 14.5669 21.8154C14.047 21.5685 13.5203 21.3266 13.0309 21.0265C12.1089 20.4613 11.1748 19.9083 10.3636 19.1814C9.57383 18.4737 8.75875 17.791 8.00809 17.0438C7.40391 16.4423 6.87063 15.7682 6.32265 15.1124C5.99762 14.7234 5.67508 14.3262 5.40448 13.8991C4.922 13.1376 4.44299 12.3695 4.02941 11.5696C3.43774 10.4252 3.04578 9.20486 2.82176 7.93193C2.73852 7.45898 2.89411 7.06985 3.16826 6.70469C3.57168 6.16736 3.94726 5.60684 4.37962 5.09407C5.01353 4.34227 5.63968 3.57796 6.43675 2.98215C6.78358 2.72289 7.08644 2.73385 7.38949 3.03609C7.97062 3.61566 8.37619 4.32129 8.78861 5.01888C9.20165 5.71749 9.59071 6.43032 9.98655 7.13901C10.0642 7.27799 10.1325 7.42337 10.1918 7.57115C10.4192 8.13769 10.3184 8.43392 9.84177 8.81346C9.40929 9.15784 9.0047 9.53708 8.58417 9.89668C8.40757 10.0477 8.39504 10.2187 8.46203 10.4299C8.82333 11.569 9.37224 12.6013 10.1011 13.5536C10.8144 14.4856 11.6754 15.2368 12.626 15.9102C13.3855 16.4482 14.219 16.8088 15.0916 17.1043C15.3689 17.1982 15.5821 17.1785 15.776 16.9383C16.1041 16.5318 16.4491 16.1391 16.7871 15.7405C17.1439 15.3197 17.4571 15.1183 17.9901 15.3926C18.7248 15.7707 19.4558 16.1575 20.1723 16.5687C20.7638 16.9081 21.3409 17.275 21.9066 17.6561C22.1744 17.8365 22.4129 18.0664 22.642 18.2964C22.8463 18.5014 22.8466 18.8268 22.6719 19.0705C22.3167 19.5663 21.897 20.0009 21.4302 20.3939C20.8516 20.8811 20.2835 21.3807 19.696 21.8816Z" fill="white"/>
<path d="M18.0993 5.75923C16.9398 4.91748 15.6431 4.48311 14.2516 4.30351C14.0868 4.28224 13.9171 4.29487 13.7498 4.29839C13.5768 4.30204 13.4964 4.21716 13.4958 4.05008C13.4945 3.70763 13.497 3.36516 13.4942 3.02273C13.4926 2.83392 13.6048 2.80022 13.7628 2.79983C14.566 2.79797 15.3534 2.91205 16.1154 3.1598C16.6702 3.34017 17.2311 3.52201 17.7538 3.77613C18.5123 4.14491 19.1761 4.66693 19.8106 5.2232C20.6122 5.92585 21.2257 6.78068 21.7469 7.69542C22.2163 8.51945 22.4746 9.4332 22.6434 10.3634C22.7311 10.8466 22.7465 11.3429 22.794 11.8333C22.813 12.03 22.7209 12.1082 22.5264 12.1037C22.2069 12.0961 21.8871 12.0982 21.5675 12.1024C21.3816 12.1049 21.2903 12.041 21.2941 11.8359C21.3135 10.766 21.0033 9.77225 20.5895 8.80019C20.1891 7.8597 19.5615 7.08754 18.8379 6.38549C18.6105 6.16484 18.356 5.97206 18.0993 5.75923Z" fill="white"/>
<path d="M17.6539 11.1875C17.5168 10.5078 17.1947 9.93648 16.7912 9.40912C16.2255 8.66997 15.4478 8.24309 14.578 7.97543C14.3211 7.89637 14.042 7.87483 13.7713 7.86028C13.576 7.84979 13.4928 7.77764 13.494 7.58807C13.496 7.26882 13.4997 6.9494 13.4919 6.63032C13.4871 6.43342 13.571 6.36187 13.7646 6.36231C14.5144 6.36399 15.219 6.55425 15.8961 6.85949C16.6234 7.18736 17.2702 7.63164 17.8003 8.23228C18.3603 8.86674 18.769 9.59427 18.9934 10.4065C19.1213 10.8692 19.1584 11.3576 19.2283 11.8356C19.254 12.0111 19.1747 12.1062 18.9832 12.1027C18.6489 12.0964 18.3143 12.0978 17.9799 12.1013C17.7935 12.1033 17.7357 12.0207 17.7342 11.8353C17.7324 11.6256 17.6836 11.4163 17.6539 11.1875Z" fill="white"/>
</svg>