<?xml version="1.0" encoding="UTF-8"?>
<svg width="64px" height="24px" viewBox="0 0 64 24" version="1.1" xmlns="http://www.w3.org/2000/svg" xmlns:xlink="http://www.w3.org/1999/xlink">
    <title>03960DB0-1DD4-4FBB-8EB9-1F49E2CAF594</title>
    <g id="Page-1" stroke="none" stroke-width="1" fill="none" fill-rule="evenodd">
        <g id="2_Web_From-MBC-(Dark)-" transform="translate(-608.000000, -174.000000)" fill="#FFFFFF">
            <g id="Group" transform="translate(608.000000, 156.000000)">
                <g id="Logos/Mbc" transform="translate(0.000000, 18.000000)">
                    <path d="M35.9415165,23.997597 C35.7406847,23.9231052 35.5259743,23.9303141 35.3177951,23.8990756 C33.8417632,23.677202 32.4857406,23.1493511 31.2252355,22.375597 C30.06433,21.663519 29.0740498,20.7744227 28.2992963,19.6602489 C28.1841854,19.4944445 28.124589,19.3454607 28.216841,19.1500198 C28.2715391,19.0346775 28.2919488,18.9041166 28.3278699,18.7807645 C28.4046105,18.7719536 28.4315514,18.8304257 28.4699217,18.8656691 C29.7467545,20.0327082 31.2644222,20.7103437 32.9763906,20.9882864 C34.1862795,21.1845284 35.3831062,21.1404741 36.5587068,20.7800296 C38.1498495,20.2914272 39.2307489,19.2589541 39.883044,17.77152 C40.2300094,16.9817462 40.428392,16.151923 40.5581979,15.30608 C40.7108627,14.3064474 40.8259736,13.3012079 40.8284228,12.2895605 C40.8316883,11.2298538 40.5639126,10.2390321 39.8748801,9.39559212 C39.0021599,8.32787558 37.8412544,7.8921383 36.4721695,8.01869435 C34.9961377,8.15566324 34.0507589,9.03034175 33.3943819,10.2646637 C32.9608792,11.0800692 32.7241263,11.9579516 32.5853401,12.8606647 C32.4106328,13.9940622 32.2465385,15.1290617 32.2171485,16.277678 C32.209801,16.5692375 32.2269452,16.8599961 32.272663,17.1491526 C32.3779772,17.8155743 32.7339229,18.3081817 33.3543788,18.5997412 C33.5356172,18.6846459 33.5674564,18.7767595 33.5094928,18.9545788 C33.41969,19.2301185 33.4278538,19.2461383 33.1445668,19.197278 C31.4823982,18.9057185 29.9933041,18.2649284 28.7964774,17.0674519 C27.9409014,16.2111961 27.6257752,15.1851309 27.7841547,13.9876543 C27.944167,12.7837699 28.036419,11.5718756 28.1596938,10.3631852 C28.2813358,9.16731064 28.4037942,7.97063509 28.5246198,6.77476052 C28.644629,5.58449287 28.7638218,4.39422522 28.8805655,3.20395757 C28.9140375,2.85953287 28.99486,2.5143072 28.9001588,2.16988251 C28.6691207,1.32884547 28.0788712,0.866675594 27.2388066,0.670433619 C26.8559201,0.581523989 26.4681351,0.529459792 26.0754519,0.523852878 C25.9693213,0.522250903 25.9252363,0.515843002 25.9464624,0.385282014 C26.0101408,0.00160892869 26.0011605,0.000807941032 26.3889454,0.000807941032 C28.2870505,0.000807941032 30.1851556,0.00240991634 32.0832607,3.46154605e-06 C32.564114,-0.000794034274 32.991902,0.136174854 33.3560116,0.445356088 C33.7740029,0.800193619 33.9478938,1.24714473 33.8817663,1.78861238 C33.6817509,3.43063707 33.4858175,5.07346275 33.2882513,6.71628842 C33.2849857,6.74031805 33.2882513,6.76514867 33.2882513,6.80680003 C33.6964459,6.60655312 34.1046406,6.43113682 34.529163,6.29176497 C38.3400682,5.04462719 43.0481852,6.65621435 44.7087211,11.0776662 C45.2344758,12.4777926 45.3936717,13.9259783 45.2932558,15.4094074 C45.2099841,16.6301126 44.9618017,17.8147733 44.440129,18.9289472 C43.1559486,21.6707279 41.0235398,23.3616128 37.9686111,23.8958716 C37.7367565,23.936722 37.4959217,23.9223042 37.2705982,24.0000035 C36.8281152,23.997597 36.3848159,23.997597 35.9415165,23.997597 L35.9415165,23.997597 Z M63.9991836,8.63064891 C63.9273414,8.65067361 63.8824399,8.59620645 63.830191,8.56817188 C62.6635707,7.95141138 61.4161279,7.67346867 60.0935772,7.70711015 C56.699847,7.79201484 53.7412522,10.3071161 53.174678,13.5879615 C52.5378944,17.2789126 54.8123549,20.758403 58.5130476,21.7075733 C60.327881,22.1729472 62.0831179,21.9598844 63.7550832,21.1156435 C63.8318238,21.0763951 63.8946858,20.9930924 64,21.0203259 L64,21.3927852 C63.9306069,21.3807704 63.9052988,21.4416454 63.8677449,21.4760879 C62.4602898,22.7432504 60.8128162,23.5514469 58.9212422,23.7941462 C55.6091509,24.2186696 52.7966898,23.2166341 50.5508028,20.7800296 C49.3564253,19.4840316 48.6167766,17.9493393 48.3734926,16.2224099 C47.917131,12.9808129 48.9302701,10.2294203 51.404746,8.02590324 C52.7477064,6.82922768 54.3453802,6.10193089 56.1398039,5.85602768 C59.0330876,5.45873781 61.5949171,6.20686028 63.7959027,8.10520101 C63.8603974,8.16046916 63.9093808,8.23736398 64,8.25899064 C63.9991836,8.38234274 63.9991836,8.50649583 63.9991836,8.63064891 Z M3.05980502,6.25812349 C3.97089546,6.25812349 4.88198591,6.25411855 5.79225997,6.25972546 C6.46169919,6.2637304 7.00868001,6.51524052 7.38095353,7.07593188 C7.5589264,7.34346176 7.62587032,7.64142916 7.59158197,7.96262521 C7.36136019,10.1124761 7.1319548,12.2631279 6.90418218,14.4129788 C6.70906514,16.2552504 6.54415451,18.1015269 6.31148356,19.9389926 C6.15636959,21.1685086 6.79233685,21.9014123 7.76792205,22.4733175 C8.21938533,22.7376435 8.7100353,22.9178657 9.21456388,23.0604415 C9.342737,23.0964859 9.38600563,23.1373363 9.34845172,23.2743052 C9.27007835,23.5578548 9.27824224,23.5602578 8.97699459,23.5602578 C7.52218888,23.5578548 6.06656677,23.5834864 4.61257745,23.543437 C3.33329543,23.5081936 2.03360368,22.5574212 1.8262408,21.1885333 C1.77399188,20.8465116 1.82705719,20.5076938 1.86052915,20.169677 C1.9936006,18.8256198 2.12993761,17.4815625 2.26709101,16.1375052 C2.4132247,14.6949264 2.56180755,13.2523477 2.70794123,11.8097689 C2.80264239,10.8726134 2.8859141,9.93465681 2.99041193,8.99830225 C3.09817531,8.03631608 2.35607745,7.24734324 1.6205107,7.02306669 C1.13312629,6.87488398 0.636761601,6.8019941 0.129783852,6.7827704 C0.0146729618,6.77876546 -0.0171662205,6.75954176 0.00814184746,6.63538867 C0.0832496622,6.25972546 0.0759021586,6.25812349 0.458788736,6.25812349 L3.05980502,6.25812349 Z M19.8121133,6.25812349 C20.7166726,6.25812349 21.6212319,6.2573225 22.5257913,6.25812349 C23.1127752,6.25892447 23.6124054,6.45676842 24.0001903,6.89891361 C24.3463394,7.29299953 24.3740966,7.75276645 24.3169494,8.24537385 C24.1683665,9.52535212 24.0401934,10.8077334 23.90304,12.0893136 C23.7569063,13.4565995 23.6083235,14.8246864 23.4621898,16.1919724 C23.320138,17.5224129 23.173188,18.8528533 23.0393001,20.1848958 C22.955212,21.0211269 23.3666722,21.6354844 24.0026395,22.1328978 C24.5790103,22.5846548 25.2500823,22.8529857 25.9497279,23.0548346 C26.1064747,23.0996899 26.1162714,23.154157 26.0925961,23.2975338 C26.0583077,23.5041886 25.9823835,23.5690686 25.7562437,23.5667296 C24.2891921,23.5506459 22.8205078,23.5850884 21.3542726,23.5426361 C20.0651939,23.5049896 18.767135,22.5422025 18.5703851,21.1637027 C18.5246673,20.8457106 18.5720179,20.5325245 18.6030407,20.2185373 C18.7499908,18.7327052 18.9010228,17.2468731 19.0520548,15.761041 C19.2112507,14.1951101 19.3720794,12.6299803 19.5312753,11.0640494 C19.6014848,10.373598 19.6545501,9.68154472 19.7386382,8.99269533 C19.8423197,8.14204645 19.2218638,7.30581534 18.3989434,7.03347953 C17.9091098,6.87168003 17.4045812,6.8019941 16.8910724,6.78357139 C16.7775943,6.77956645 16.7294273,6.77075558 16.7571845,6.62978176 C16.831476,6.26052645 16.8208629,6.25812349 17.1947692,6.25812349 L19.8121133,6.25812349 Z M11.4498378,6.25812349 C12.3543971,6.25812349 13.2597728,6.2509146 14.1643321,6.26052645 C14.9203086,6.26853633 15.5048434,6.57451361 15.8534416,7.25455213 C16.0469259,7.63341929 15.961205,8.03151015 15.9195691,8.4239941 C15.7987435,9.57661533 15.6754687,10.7292366 15.5521939,11.8818578 C15.4183061,13.1330005 15.2827855,14.3833422 15.149714,15.634485 C15.017459,16.8792198 14.8868367,18.1247556 14.755398,19.3694904 C14.7309063,19.6033788 14.7121294,19.8388691 14.6786574,20.0719565 C14.5537498,20.9474361 14.950515,21.5938331 15.6126067,22.120082 C16.1914268,22.5798489 16.8690299,22.8505827 17.5743902,23.0548346 C17.7197075,23.0964859 17.760527,23.1413412 17.7205239,23.288723 C17.6478652,23.5570538 17.6576619,23.5594568 17.3711093,23.5594568 C15.9154872,23.5570538 14.4598651,23.5794815 13.0050594,23.544238 C11.7363904,23.5138005 10.4620067,22.5878588 10.2162735,21.276642 C10.1346346,20.8409047 10.2138244,20.4115753 10.2554602,19.980644 C10.3583253,18.9137284 10.470987,17.8468128 10.5787504,16.7798973 C10.7012088,15.5712069 10.8236672,14.3625166 10.9453092,13.1538262 C11.0653184,11.9635585 11.186144,10.7732909 11.3012549,9.58302323 C11.3330941,9.25061336 11.4196314,8.91820348 11.3608513,8.58419163 C11.2261471,7.81364151 10.7616216,7.30421336 10.0227893,7.03508151 C9.53867043,6.85886423 9.02924351,6.79798916 8.51573464,6.78357139 C8.38266319,6.77956645 8.36225346,6.73631312 8.3818468,6.62097089 C8.44144322,6.2573225 8.43817766,6.2573225 8.81126757,6.2573225 C9.69051883,6.25812349 10.5705865,6.25812349 11.4498378,6.25812349 L11.4498378,6.25812349 Z" id="Shape"></path>
                </g>
            </g>
        </g>
    </g>
</svg>