<svg xmlns="http://www.w3.org/2000/svg" width="24" height="24" viewBox="0 0 24 24">
    <g fill="none" fill-rule="evenodd">
        <g>
            <g>
                <g>
                    <g>
                        <path d="M0 0H24V24H0z" transform="translate(-196 -78) translate(184 64) translate(0 6) translate(12 8)"/>
                        <path fill="#0C9" d="M16.19 8.25l-9.97 9.97c-.293.293-.293.767 0 1.06.293.293.767.293 1.06 0l10.5-10.5c.293-.293.293-.767 0-1.06l-4.5-4.5c-.293-.293-.767-.293-1.06 0-.293.293-.293.767 0 1.06l3.97 3.97z" transform="translate(-196 -78) translate(184 64) translate(0 6) translate(12 8) matrix(0 1 1 0 .75 -.75)"/>
                    </g>
                </g>
            </g>
        </g>
    </g>
</svg>
